<svg width="1373" height="349" viewBox="0 0 1373 349" fill="none" xmlns="http://www.w3.org/2000/svg">
<g clip-path="url(#clip0_4691_282)">
<path d="M364.562 6.67979V32.3624H363.678C346.898 13.7819 320.287 0 289.261 0C223.982 0 177.98 51.7108 176.329 116.512C162.352 102.999 142.96 95.5517 126.295 90.4075C106.826 84.1884 90.8524 80.6566 90.8524 68.679C90.8524 58.0835 97.9178 54.9739 115.197 54.9739C139.159 54.9739 165.692 69.1397 165.692 69.1397L191.381 17.7744C191.381 17.7744 159.088 0 115.197 0C55.41 0 15.974 26.5656 15.974 73.0938C15.974 107.184 39.0135 123.115 62.053 135.055C87.7421 148.376 112.548 149.681 112.548 166.073C112.548 181.161 99.2234 182.466 88.1644 182.466C62.9362 182.466 31.9097 156.323 31.9097 156.323L0 209.953C0 209.953 32.8313 240.511 87.7421 240.511C128.676 240.511 180.975 232.219 192.841 184.616C212.079 218.168 246.523 240.511 289.222 240.511C319.788 240.511 345.055 230.338 363.64 212.179V349.038H442.089V6.67979H364.562ZM312.723 173.636C283.079 173.636 259.617 151.485 259.617 120.083C259.617 88.68 280.851 66.9131 312.723 66.9131C344.594 66.9131 365.445 89.0255 365.445 120.083C365.445 151.14 341.983 173.636 312.723 173.636Z" fill="url(#paint0_linear_4691_282)" fill-opacity="0.4"/>
<path d="M1158.23 120.467C1158.23 99.8514 1154.66 81.8083 1148.25 66.414H1147.52V64.7249C1128.74 21.8437 1086.93 0 1036.39 0C985.86 0 943.89 28.0244 923.692 68.5639C905.759 23.1489 862.983 0 810.952 0C758.921 0 714.147 30.942 695.409 74.8214V6.67979H616.998V114.747C616.998 159.432 605.017 176.746 572.224 176.746C539.431 176.746 527.528 159.432 527.528 114.747V6.67979H449.078V133.788C449.078 209.953 487.17 240.511 572.224 240.511C646.296 240.511 684.772 217.324 693.45 161.044C710.845 207.266 757.078 240.511 810.952 240.511C861.408 240.511 903.071 224.119 928.76 181.237C928.76 181.237 928.76 181.161 928.684 181.084L872.083 152.829C853.037 173.214 841.94 178.051 816.712 178.051C796.744 178.051 767.522 166.112 767.522 131.101H911.942C913.631 149.22 919.506 166.189 928.684 181.084L928.76 181.161V181.237C950.571 216.633 990.737 240.511 1036.39 240.511C1086.89 240.511 1128.55 224.119 1154.24 181.161L1097.52 152.829C1078.48 173.214 1067.38 178.051 1042.19 178.051C1022.22 178.051 993.002 166.112 993.002 131.101H1157.81C1158.23 128.452 1158.23 123.576 1158.23 120.505M769.749 87.7203C771.093 66.9131 786.146 50.943 813.179 50.943C836.218 50.943 852.615 63.8035 856.148 87.7203H769.749ZM995.191 87.7203C996.535 66.9131 1011.59 50.943 1038.58 50.943C1061.62 50.943 1078.02 63.8035 1081.55 87.7203H995.191Z" fill="url(#paint1_linear_4691_282)" fill-opacity="0.4"/>
<path d="M928.721 181.123C928.721 181.123 928.721 181.201 928.799 181.24C928.799 181.24 928.799 181.24 928.799 181.162L928.721 181.084V181.123Z" fill="url(#paint2_linear_4691_282)" fill-opacity="0.4"/>
<path d="M1147.52 64.7249V66.414H1148.25C1148.02 65.8381 1147.79 65.2623 1147.52 64.7249ZM928.76 181.237C928.76 181.237 928.76 181.237 928.76 181.161L928.684 181.084C928.684 181.084 928.684 181.161 928.76 181.199" fill="url(#paint3_linear_4691_282)" fill-opacity="0.4"/>
<path d="M1373 6.68018H1147.48V66.4528H1241.44L1128.9 233.87H1364.13V174.059H1260.49L1373 6.68018Z" fill="url(#paint4_linear_4691_282)" fill-opacity="0.4"/>
</g>
<defs>
<linearGradient id="paint0_linear_4691_282" x1="221.045" y1="0" x2="221.045" y2="349.038" gradientUnits="userSpaceOnUse">
<stop stop-color="#F77148"/>
<stop offset="1" stop-color="#F2F2F2" stop-opacity="0"/>
</linearGradient>
<linearGradient id="paint1_linear_4691_282" x1="803.656" y1="0" x2="803.656" y2="240.511" gradientUnits="userSpaceOnUse">
<stop stop-color="#F77148"/>
<stop offset="1" stop-color="#F2F2F2" stop-opacity="0"/>
</linearGradient>
<linearGradient id="paint2_linear_4691_282" x1="928.76" y1="181.084" x2="928.76" y2="181.24" gradientUnits="userSpaceOnUse">
<stop stop-color="#F77148"/>
<stop offset="1" stop-color="#F2F2F2" stop-opacity="0"/>
</linearGradient>
<linearGradient id="paint3_linear_4691_282" x1="1038.47" y1="64.7249" x2="1038.47" y2="181.237" gradientUnits="userSpaceOnUse">
<stop stop-color="#F77148"/>
<stop offset="1" stop-color="#F2F2F2" stop-opacity="0"/>
</linearGradient>
<linearGradient id="paint4_linear_4691_282" x1="1250.95" y1="6.68018" x2="1250.95" y2="233.87" gradientUnits="userSpaceOnUse">
<stop stop-color="#F77148"/>
<stop offset="1" stop-color="#F2F2F2" stop-opacity="0"/>
</linearGradient>
<clipPath id="clip0_4691_282">
<rect width="1373" height="349" fill="white"/>
</clipPath>
</defs>
</svg>
